<?xml version="1.0" encoding="UTF-8"?>
<svg xmlns="http://www.w3.org/2000/svg" xmlns:xlink="http://www.w3.org/1999/xlink" width="70px" height="70px" viewBox="0 0 70 70" version="1.1">
<g id="surface1">
<path style=" stroke:none;fill-rule:nonzero;fill:rgb(1.568628%,8.627451%,22.352941%);fill-opacity:1;" d="M 35 58.9375 C 41.015625 59.667969 47.140625 65.058594 52.507812 62.238281 C 57.78125 59.46875 58.742188 52.050781 59.363281 46.128906 C 59.882812 41.195312 56.1875 36.960938 55.679688 32.027344 C 55.140625 26.777344 59.117188 21.003906 56.316406 16.527344 C 53.546875 12.097656 47.011719 12.511719 42.203125 10.46875 C 36.617188 8.09375 31.757812 2.582031 25.761719 3.539062 C 19.742188 4.5 15.554688 10.15625 12.210938 15.25 C 9.132812 19.929688 7.089844 25.503906 7.675781 31.070312 C 8.207031 36.148438 13.125 39.378906 15.234375 44.027344 C 17.347656 48.691406 15.9375 55.210938 20.027344 58.296875 C 24.097656 61.367188 29.9375 58.324219 35 58.9375 "/>
<path style="fill:none;stroke-width:0.00048;stroke-linecap:butt;stroke-linejoin:miter;stroke:rgb(100%,100%,100%);stroke-opacity:1;stroke-miterlimit:4;" d="M -0.00171436 -0.00171436 L 48.001712 -0.00171436 L 48.001712 48.001712 L -0.00171436 48.001712 Z M -0.00171436 -0.00171436 " transform="matrix(0.934829,0,0,0.934829,12.564103,12.564103)"/>
<path style="fill:none;stroke-width:0.00048;stroke-linecap:butt;stroke-linejoin:miter;stroke:rgb(100%,100%,100%);stroke-opacity:1;stroke-miterlimit:4;" d="M -0.00171436 -0.00171436 L 48.001712 -0.00171436 L 48.001712 48.001712 L -0.00171436 48.001712 Z M -0.00171436 -0.00171436 " transform="matrix(0.934829,0,0,0.934829,12.564103,12.564103)"/>
<path style="fill:none;stroke-width:0.00048;stroke-linecap:butt;stroke-linejoin:miter;stroke:rgb(100%,100%,100%);stroke-opacity:1;stroke-miterlimit:4;" d="M -0.00171436 -0.00171436 L 48.001712 -0.00171436 L 48.001712 48.001712 L -0.00171436 48.001712 Z M -0.00171436 -0.00171436 " transform="matrix(0.934829,0,0,0.934829,12.564103,12.564103)"/>
<path style="fill-rule:nonzero;fill:rgb(100%,100%,100%);fill-opacity:1;stroke-width:0.00048;stroke-linecap:butt;stroke-linejoin:miter;stroke:rgb(100%,100%,100%);stroke-opacity:1;stroke-miterlimit:4;" d="M 39.999748 17.999571 C 37.459177 18.041356 35.202749 19.625035 34.300177 21.998463 L 25.800963 21.998463 C 25.508463 20.815928 24.998678 19.700249 24.300856 18.701571 L 27.79832 14.598214 C 28.508677 14.836392 29.252463 14.974285 30.000427 14.999357 C 33.314034 14.999357 36.000856 12.312535 36.000856 8.998928 C 36.000856 5.685321 33.314034 2.9985 30.000427 2.9985 C 26.68682 2.9985 23.999999 5.685321 23.999999 8.998928 C 24.004178 10.051928 24.279963 11.084035 24.798106 11.999142 L 21.200356 16.098321 C 19.917535 15.375428 18.471749 14.995178 17.000892 14.999357 L 15.300214 15.199928 L 14.100964 12.400285 C 16.215321 10.440535 16.633178 7.256464 15.103821 4.812 C 13.574464 2.371714 10.524107 1.364678 7.841464 2.409321 C 5.154643 3.458143 3.596036 6.266143 4.122535 9.099214 C 4.649035 11.932285 7.118571 13.988142 10.001785 14.000678 L 10.39875 14.000678 L 11.698285 16.800321 C 9.395892 18.475928 8.033678 21.150213 8.033678 23.999999 C 8.033678 26.849785 9.395892 29.52407 11.698285 31.199677 L 10.39875 33.99932 L 10.001785 33.99932 C 7.118571 34.011856 4.649035 36.067713 4.122535 38.900784 C 3.596036 41.733856 5.154643 44.541855 7.841464 45.590677 C 10.524107 46.63532 13.574464 45.628284 15.103821 43.187998 C 16.633178 40.743534 16.215321 37.559463 14.100964 35.599713 L 15.300214 32.80007 L 17.000892 33.000642 C 18.471749 33.00482 19.917535 32.62457 21.200356 31.901677 L 24.798106 36.000856 C 24.279963 36.915963 24.004178 37.94807 23.999999 39.00107 C 23.999999 42.314677 26.68682 45.001498 30.000427 45.001498 C 33.314034 45.001498 36.000856 42.314677 36.000856 39.00107 C 36.000856 35.687463 33.314034 33.000642 30.000427 33.000642 C 29.252463 33.025713 28.508677 33.163606 27.79832 33.401784 L 24.300856 29.298427 C 24.998678 28.299749 25.508463 27.18407 25.800963 26.001535 L 34.300177 26.001535 C 35.202749 28.374963 37.459177 29.958642 39.999748 30.000427 C 43.313355 30.000427 46.000177 27.313606 46.000177 23.999999 C 46.000177 20.686392 43.313355 17.999571 39.999748 17.999571 Z M 8.00025 8.00025 C 8.00025 6.897107 8.894464 5.998714 10.001785 5.998714 C 11.104928 5.998714 11.999142 6.897107 11.999142 8.00025 C 11.999142 9.103392 11.104928 10.001785 10.001785 10.001785 C 8.894464 10.001785 8.00025 9.103392 8.00025 8.00025 Z M 10.001785 42.001284 C 8.894464 42.001284 8.00025 41.102891 8.00025 39.999748 C 8.00025 38.896606 8.894464 37.998213 10.001785 37.998213 C 11.104928 37.998213 11.999142 38.896606 11.999142 39.999748 C 11.999142 41.102891 11.104928 42.001284 10.001785 42.001284 Z M 30.000427 7.001571 C 31.10357 7.001571 32.001963 7.895785 32.001963 8.998928 C 32.001963 10.10625 31.10357 11.000464 30.000427 11.000464 C 28.897285 11.000464 27.998892 10.10625 27.998892 8.998928 C 27.998892 7.895785 28.897285 7.001571 30.000427 7.001571 Z M 11.999142 23.999999 C 11.999142 21.237963 14.238857 18.998249 17.000892 18.998249 C 19.762928 18.998249 21.998463 21.237963 21.998463 23.999999 C 21.998463 26.762035 19.762928 29.001749 17.000892 29.001749 C 14.238857 29.001749 11.999142 26.762035 11.999142 23.999999 Z M 32.001963 39.00107 C 32.001963 40.104213 31.10357 40.998427 30.000427 40.998427 C 28.897285 40.998427 27.998892 40.104213 27.998892 39.00107 C 27.998892 37.893749 28.897285 36.999534 30.000427 36.999534 C 31.10357 36.999534 32.001963 37.893749 32.001963 39.00107 Z M 39.999748 26.001535 C 38.896606 26.001535 37.998213 25.103142 37.998213 23.999999 C 37.998213 22.896856 38.896606 21.998463 39.999748 21.998463 C 41.102891 21.998463 42.001284 22.896856 42.001284 23.999999 C 42.001284 25.103142 41.102891 26.001535 39.999748 26.001535 Z M 39.999748 26.001535 " transform="matrix(0.934829,0,0,0.934829,12.564103,12.564103)"/>
</g>
</svg>
